<?xml version="1.0" encoding="iso-8859-1"?>
<!-- Uploaded to: SVG Repo, www.svgrepo.com, Generator: SVG Repo Mixer Tools -->
<svg fill="#000000" height="800px" width="800px" version="1.1" id="Layer_1" xmlns="http://www.w3.org/2000/svg" xmlns:xlink="http://www.w3.org/1999/xlink" 
	 viewBox="0 0 511.999 511.999" xml:space="preserve">
<g>
	<g>
		<g>
			<path d="M490.146,140.597c0-76.592-61.445-139.659-136.971-140.586c-36.424-0.46-71.2,13.465-97.173,38.093
				c-25.975-24.627-60.765-38.509-97.173-38.093C83.302,0.938,21.858,64.005,21.858,140.596c0,2.494-3.135-18.285,48.685,311.669
				c8.166,62.265,89.209,81.712,124.79,30.058l40.651-59.01c9.682-14.055,30.366-14.038,40.035,0l40.651,59.011
				c35.609,51.688,116.628,32.164,124.79-30.058C493.1,123.461,490.146,143.098,490.146,140.597z M398.956,445.894
				c-0.033,0.215-0.065,0.431-0.093,0.648c-2.944,23.385-33.397,30.854-46.801,11.399l-40.651-59.011
				c-26.723-38.791-84.108-38.778-110.82,0l-40.651,59.011c-13.429,19.495-43.861,11.951-46.801-11.399
				c-0.029-0.216-0.059-0.433-0.092-0.648L64.848,139c0.844-52.814,43.496-96.02,95.682-96.02c30.886,0,59.965,14.967,77.982,40.199
				l46.471,66.276c6.816,9.722,20.22,12.068,29.932,5.258c9.717-6.814,12.073-20.214,5.258-29.932l-37.146-52.977
				c59.72-61.017,162.756-18.859,164.128,67.194L398.956,445.894z"/>
			<path d="M147.435,134.169c-1.483-11.775-12.242-20.13-24.006-18.634c-11.776,1.483-20.118,12.232-18.634,24.006l17.608,139.738
				c1.487,11.809,12.282,20.128,24.006,18.634c11.776-1.483,20.118-12.232,18.634-24.006L147.435,134.169z"/>
		</g>
	</g>
</g>
</svg>